<?xml version="1.0" standalone="no"?>
<!DOCTYPE svg PUBLIC "-//W3C//DTD SVG 20010904//EN"
 "http://www.w3.org/TR/2001/REC-SVG-20010904/DTD/svg10.dtd">
<svg version="1.0" xmlns="http://www.w3.org/2000/svg"
 width="512.000000pt" height="512.000000pt" viewBox="0 0 512.000000 512.000000"
 preserveAspectRatio="xMidYMid meet">

<g transform="translate(0.000000,512.000000) scale(0.100000,-0.100000)"
fill="#000000" stroke="none">
<path d="M2155 5081 c-77 -21 -482 -130 -899 -241 -418 -111 -780 -212 -805
-225 -101 -51 -171 -161 -171 -268 0 -43 681 -2618 709 -2682 10 -22 36 -62
59 -88 23 -27 42 -55 42 -63 0 -52 69 -126 723 -780 544 -543 692 -686 732
-705 72 -34 182 -34 248 1 69 36 1988 1955 2019 2019 18 35 23 63 23 121 0
127 3 123 -467 596 l-419 421 72 264 c85 310 91 367 47 461 -30 65 -90 127
-145 151 -21 9 -281 83 -578 163 -297 80 -547 150 -555 154 -9 5 -38 98 -79
252 -80 306 -91 336 -147 393 -98 101 -197 115 -409 56z m275 -124 c19 -12 41
-36 51 -52 28 -50 713 -2649 705 -2678 -8 -33 -51 -84 -87 -102 -15 -8 -394
-112 -841 -231 -447 -118 -844 -224 -883 -235 -118 -32 -180 -23 -233 34 -19
20 -89 272 -369 1318 -190 712 -347 1314 -350 1339 -5 55 19 98 74 134 27 18
231 76 723 207 377 100 773 205 880 234 222 60 281 66 330 32z m929 -886 c482
-131 516 -142 548 -173 71 -69 94 42 -296 -1409 -193 -717 -358 -1319 -366
-1337 -20 -43 -69 -72 -125 -72 -28 0 -351 83 -862 222 -449 122 -816 223
-815 224 1 1 377 101 835 223 458 121 851 230 875 242 95 48 163 143 173 246
6 53 -15 136 -246 1008 -139 523 -255 956 -257 963 -3 7 0 10 8 7 8 -2 245
-68 528 -144z m943 -1438 c337 -338 387 -393 393 -425 16 -87 65 -34 -975
-1073 -533 -533 -980 -973 -992 -978 -13 -5 -46 -7 -75 -5 -42 4 -59 11 -100
46 -73 62 -1210 1204 -1193 1198 8 -3 389 -107 845 -232 748 -205 838 -227
910 -228 68 -1 87 3 131 26 66 34 130 108 148 167 7 25 125 461 261 969 137
507 252 922 255 922 3 0 179 -174 392 -387z"/>
</g>
</svg>
