<?xml version="1.0" standalone="no"?>
<!DOCTYPE svg PUBLIC "-//W3C//DTD SVG 20010904//EN"
 "http://www.w3.org/TR/2001/REC-SVG-20010904/DTD/svg10.dtd">
<svg version="1.0" xmlns="http://www.w3.org/2000/svg"
 width="512.000000pt" height="512.000000pt" viewBox="0 0 512.000000 512.000000"
 preserveAspectRatio="xMidYMid meet">

<g transform="translate(0.000000,512.000000) scale(0.100000,-0.100000)"
fill="#000000" stroke="none">
<path d="M2449 5025 c-81 -22 -142 -58 -204 -120 -33 -33 -69 -79 -79 -103
l-19 -42 -218 0 c-119 0 -225 -3 -234 -6 -22 -9 -45 -57 -45 -94 l0 -30 -393
0 c-467 0 -469 0 -557 -88 -99 -100 -90 125 -90 -2187 0 -2312 -9 -2087 90
-2187 97 -96 -75 -88 1860 -88 1935 0 1763 -8 1860 88 99 100 90 -125 90 2187
0 2312 9 2087 -90 2187 -88 88 -90 88 -557 88 l-393 0 0 31 c0 34 -15 68 -39
86 -11 9 -79 12 -237 13 l-221 0 -19 42 c-25 56 -127 157 -187 187 -103 50
-220 63 -318 36z m200 -161 c70 -20 151 -98 176 -169 33 -95 35 -95 276 -95
l209 0 0 -200 0 -200 -750 0 -750 0 0 200 0 200 209 0 c241 0 243 0 276 95 24
68 106 149 172 169 63 19 118 19 182 0z m-999 -574 c0 -191 6 -220 47 -239 17
-8 269 -11 863 -11 594 0 846 3 863 11 41 19 47 48 47 239 l0 180 386 0 c427
0 437 -1 475 -64 18 -30 19 -92 19 -2051 0 -1959 -1 -2021 -19 -2051 -42 -69
94 -64 -1771 -64 -1865 0 -1729 -5 -1771 64 -18 30 -19 92 -19 2051 0 2008 0
2020 20 2053 37 60 45 61 473 62 l387 0 0 -180z"/>
<path d="M2525 4751 c-86 -37 -76 -166 16 -186 60 -13 127 54 114 114 -12 55
-81 93 -130 72z"/>
<path d="M1415 3875 l-25 -24 0 -244 c0 -242 0 -244 23 -265 23 -21 30 -22
269 -22 267 0 264 -1 286 59 8 21 26 5 245 -225 l238 -247 -108 -111 c-59 -61
-111 -112 -114 -114 -3 -1 -62 56 -132 127 l-127 129 0 106 c0 100 -2 108 -25
131 l-24 25 -239 0 c-227 0 -241 -1 -266 -21 l-26 -20 0 -248 c0 -246 0 -248
23 -269 23 -21 30 -22 269 -22 266 0 264 0 285 58 8 21 13 18 77 -47 l69 -69
-69 -77 -69 -76 -7 30 c-16 58 -28 61 -289 61 -224 0 -238 -1 -263 -21 l-26
-20 0 -248 c0 -246 0 -248 23 -269 23 -21 31 -22 266 -22 l242 0 24 25 c23 22
25 31 25 127 l0 103 128 134 127 134 113 -118 113 -118 -108 -111 c-60 -61
-168 -173 -241 -249 -96 -100 -132 -132 -132 -117 0 12 -11 32 -25 45 l-24 25
-239 0 c-227 0 -241 -1 -266 -21 l-26 -20 0 -248 c0 -246 0 -248 23 -269 23
-21 31 -22 266 -22 l242 0 24 25 c23 22 25 31 25 128 l0 103 291 305 c160 167
295 304 299 304 4 0 139 -137 299 -304 l291 -305 0 -103 c0 -97 2 -106 25
-128 l24 -25 244 0 c242 0 244 0 265 23 21 23 22 30 22 269 l0 247 -26 20
c-25 20 -39 21 -266 21 l-239 0 -24 -25 c-14 -13 -25 -33 -25 -45 0 -15 -36
17 -132 117 -73 76 -181 188 -241 249 l-108 111 113 118 113 118 127 -134 128
-134 0 -101 c0 -87 3 -105 21 -128 l20 -26 248 0 c246 0 248 0 269 23 21 23
22 30 22 269 l0 247 -26 20 c-25 20 -39 21 -263 21 -260 0 -273 -3 -288 -61
l-8 -29 -69 76 -69 76 69 69 c64 65 69 68 77 47 21 -58 19 -58 287 -58 245 0
247 0 268 23 21 23 22 30 22 269 l0 247 -26 20 c-25 20 -39 21 -266 21 l-239
0 -24 -25 c-23 -23 -25 -31 -25 -131 l0 -106 -127 -129 c-70 -71 -129 -128
-132 -127 -3 2 -55 53 -114 114 l-108 111 237 248 c220 228 238 245 246 224
22 -60 19 -59 288 -59 245 0 247 0 268 23 21 23 22 31 22 266 l0 242 -25 24
-24 25 -241 0 -241 0 -24 -25 c-23 -23 -25 -31 -25 -130 l0 -105 -292 -305
c-161 -168 -295 -305 -298 -305 -3 0 -137 137 -298 305 l-292 305 0 105 c0 99
-2 107 -25 130 l-24 25 -241 0 -241 0 -24 -25z m395 -265 l0 -130 -130 0 -130
0 0 130 0 130 130 0 130 0 0 -130z m1760 0 l0 -130 -130 0 -130 0 0 130 0 130
130 0 130 0 0 -130z m-1760 -700 l0 -130 -130 0 -130 0 0 130 0 130 130 0 130
0 0 -130z m1760 0 l0 -130 -130 0 -130 0 0 130 0 130 130 0 130 0 0 -130z
m-895 -238 l107 -112 -107 -115 c-59 -63 -111 -115 -115 -115 -4 0 -56 52
-115 115 l-107 115 108 115 c60 63 112 113 116 112 3 -1 54 -53 113 -115z
m-865 -462 l0 -130 -130 0 -130 0 0 130 0 130 130 0 130 0 0 -130z m1760 0 l0
-130 -130 0 -130 0 0 130 0 130 130 0 130 0 0 -130z m-1760 -700 l0 -130 -130
0 -130 0 0 130 0 130 130 0 130 0 0 -130z m1760 0 l0 -130 -130 0 -130 0 0
130 0 130 130 0 130 0 0 -130z"/>
<path d="M1031 1083 c-34 -29 -37 -74 -8 -109 l25 -29 162 0 162 0 24 28 c31
36 31 71 -1 102 -24 24 -28 25 -183 25 -138 0 -163 -2 -181 -17z"/>
<path d="M1672 1077 c-37 -39 -28 -98 19 -122 42 -22 976 -22 1018 0 48 24 57
87 18 123 -23 22 -24 22 -528 22 l-506 0 -21 -23z"/>
<path d="M1031 783 c-34 -29 -37 -74 -8 -109 l25 -29 519 -2 c560 -3 555 -4
581 51 16 32 2 80 -29 96 -11 6 -226 10 -542 10 -485 0 -526 -1 -546 -17z"/>
<path d="M2390 780 c-26 -26 -26 -80 -1 -111 l19 -24 487 0 487 0 24 28 c31
36 31 71 -1 102 l-24 25 -486 0 c-472 0 -486 -1 -505 -20z"/>
<path d="M1031 483 c-34 -29 -37 -74 -8 -109 l25 -29 989 -2 c1067 -3 1025 -5
1051 51 16 32 2 80 -29 96 -11 6 -395 10 -1012 10 -933 0 -996 -1 -1016 -17z"/>
<path d="M3395 475 c-32 -31 -32 -66 -1 -102 l24 -28 157 0 157 0 25 29 c19
23 24 36 19 60 -12 60 -31 66 -203 66 -150 0 -155 -1 -178 -25z"/>
</g>
</svg>
