<?xml version="1.0" standalone="no"?>
<!DOCTYPE svg PUBLIC "-//W3C//DTD SVG 20010904//EN"
 "http://www.w3.org/TR/2001/REC-SVG-20010904/DTD/svg10.dtd">
<svg version="1.0" xmlns="http://www.w3.org/2000/svg"
 width="512.000000pt" height="512.000000pt" viewBox="0 0 512.000000 512.000000"
 preserveAspectRatio="xMidYMid meet">

<g transform="translate(0.000000,512.000000) scale(0.100000,-0.100000)"
fill="#000000" stroke="none">
<path d="M654 3919 c-18 -5 -54 -24 -80 -41 -38 -26 -56 -48 -82 -101 -19 -37
-36 -85 -39 -106 -4 -32 -1 -41 18 -55 13 -9 31 -16 39 -16 24 0 54 38 75 95
33 89 103 131 178 106 19 -7 44 -22 55 -34 24 -26 452 -1123 452 -1160 0 -32
-29 -57 -67 -57 -40 0 -55 19 -92 115 -38 100 -52 120 -101 145 -36 18 -59 20
-285 20 -319 0 -327 -3 -390 -161 -19 -46 -41 -91 -49 -101 -32 -37 -116 -9
-116 40 0 10 49 145 110 301 100 258 109 286 97 310 -21 44 -85 41 -106 -6 -7
-16 -60 -149 -118 -298 -92 -237 -104 -276 -100 -317 12 -136 164 -213 283
-143 36 21 49 38 79 103 20 42 43 93 53 112 l17 35 240 0 240 0 38 -95 c58
-145 111 -187 222 -178 100 8 172 93 163 192 -4 34 -77 236 -224 616 -212 546
-220 567 -265 612 -66 66 -159 92 -245 67z"/>
<path d="M2184 3912 c-48 -23 -80 -60 -95 -111 -7 -24 -9 -240 -7 -647 l3
-610 25 -37 c49 -72 70 -77 312 -77 118 0 241 5 274 11 188 34 333 183 366
377 28 164 -43 338 -171 425 l-25 17 21 22 c12 13 33 48 47 78 87 189 -2 417
-197 509 -89 41 -150 52 -342 57 -153 5 -174 3 -211 -14z m447 -131 c86 -27
141 -68 178 -133 59 -102 51 -203 -24 -300 -25 -32 -47 -68 -49 -80 -9 -37 16
-75 74 -115 167 -116 186 -352 40 -502 -82 -85 -150 -101 -420 -101 -167 0
-201 2 -214 16 -14 14 -16 83 -16 610 l0 594 21 21 c21 21 28 22 183 16 121
-4 177 -11 227 -26z"/>
<path d="M2413 3666 c-58 -26 -68 -55 -68 -191 0 -134 10 -166 57 -191 69 -36
217 -2 266 60 76 97 45 254 -60 305 -58 28 -153 36 -195 17z m119 -116 c42
-12 58 -34 58 -78 0 -46 -28 -73 -83 -79 l-47 -6 0 80 c0 101 1 102 72 83z"/>
<path d="M2385 3117 c-41 -41 -49 -85 -43 -245 6 -177 28 -198 197 -190 82 4
109 10 155 32 125 61 154 225 59 336 -58 67 -148 100 -274 100 -56 0 -64 -3
-94 -33z m227 -108 c64 -33 92 -92 68 -148 -16 -38 -51 -53 -142 -59 l-78 -5
0 118 0 118 65 -6 c36 -4 75 -11 87 -18z"/>
<path d="M4375 3921 c-166 -27 -316 -102 -431 -216 -90 -89 -142 -172 -182
-293 -23 -69 -26 -93 -26 -232 -1 -135 2 -164 22 -230 76 -243 245 -413 487
-490 107 -34 319 -39 438 -11 156 37 324 138 361 216 27 55 18 142 -18 189
-37 50 -80 70 -147 70 -51 1 -63 -4 -133 -52 -101 -68 -162 -85 -280 -80 -116
5 -201 43 -270 119 -68 76 -90 142 -91 269 0 93 3 112 26 160 57 120 166 201
293 219 120 17 225 -13 360 -101 87 -58 197 -36 256 49 35 51 35 144 1 194
-50 74 -206 163 -347 199 -88 23 -243 33 -319 21z m218 -122 c95 -14 210 -60
283 -110 67 -47 74 -55 74 -86 0 -22 -42 -63 -65 -63 -7 0 -37 17 -66 37 -235
162 -543 136 -714 -60 -175 -200 -166 -517 19 -703 106 -105 232 -150 397
-141 120 6 180 25 272 87 82 55 92 57 125 34 18 -12 22 -24 20 -52 -3 -34 -10
-42 -81 -89 -108 -73 -182 -95 -337 -100 -147 -6 -238 10 -333 57 -115 56
-218 158 -272 267 -50 103 -59 148 -60 298 0 121 3 149 23 206 47 136 126 238
243 315 147 96 300 129 472 103z"/>
<path d="M397 3518 c-23 -19 -60 -124 -53 -153 9 -35 41 -50 76 -35 20 8 33
26 49 67 12 30 21 65 21 78 0 46 -55 71 -93 43z"/>
<path d="M685 3481 c-36 -15 -52 -44 -119 -214 -75 -192 -80 -225 -37 -268
l29 -29 156 0 c99 0 165 4 181 12 28 13 55 55 55 85 0 17 -119 334 -141 375
-11 21 -60 48 -86 47 -10 0 -27 -4 -38 -8z m88 -271 l44 -115 -90 -3 c-49 -1
-91 -1 -93 1 -3 2 12 46 32 98 20 52 40 105 45 118 5 13 11 22 14 20 2 -2 24
-56 48 -119z"/>
<path d="M578 2111 c-216 -69 -354 -291 -321 -516 44 -308 372 -488 657 -361
248 111 351 425 216 661 -35 61 -130 154 -185 183 -107 54 -258 68 -367 33z
m269 -123 c73 -27 154 -102 190 -177 25 -49 28 -68 28 -151 0 -89 -2 -99 -34
-158 -59 -109 -157 -176 -278 -188 -119 -13 -255 52 -322 152 -100 152 -74
340 64 462 93 81 232 105 352 60z"/>
<path d="M2445 2117 c-193 -64 -317 -216 -340 -417 -9 -73 15 -184 56 -260 91
-171 300 -274 487 -241 315 56 483 381 347 669 -46 98 -120 171 -222 220 -73
34 -85 37 -183 39 -67 2 -120 -2 -145 -10z m225 -117 c61 -17 143 -73 182
-125 135 -178 69 -438 -134 -531 -89 -40 -197 -41 -283 -1 -172 80 -254 275
-187 447 37 95 123 177 216 206 49 15 158 18 206 4z"/>
<path d="M4258 2111 c-78 -25 -134 -60 -194 -121 -265 -267 -117 -723 256
-790 199 -36 409 71 498 253 52 108 65 214 37 320 -42 163 -161 290 -316 338
-79 25 -203 24 -281 0z m267 -122 c120 -45 212 -170 223 -304 20 -258 -257
-449 -494 -341 -234 107 -274 425 -76 591 87 73 235 96 347 54z"/>
</g>
</svg>
