<?xml version="1.0" standalone="no"?>
<!DOCTYPE svg PUBLIC "-//W3C//DTD SVG 20010904//EN"
 "http://www.w3.org/TR/2001/REC-SVG-20010904/DTD/svg10.dtd">
<svg version="1.0" xmlns="http://www.w3.org/2000/svg"
 width="512.000000pt" height="512.000000pt" viewBox="0 0 512.000000 512.000000"
 preserveAspectRatio="xMidYMid meet">

<g transform="translate(0.000000,512.000000) scale(0.100000,-0.100000)"
fill="#000000" stroke="none">
<path d="M2605 4616 c-42 -18 -46 -23 -335 -439 -218 -313 -258 -366 -275
-361 -224 67 -231 66 -635 -110 -322 -140 -399 -182 -449 -245 -36 -46 -841
-1312 -869 -1368 -12 -23 -27 -73 -34 -112 -37 -215 98 -436 307 -500 l55 -17
-26 -35 c-55 -73 -61 -98 -113 -445 -28 -187 -51 -352 -51 -367 0 -74 71 -142
149 -142 40 0 82 20 336 158 l290 157 15 -22 c140 -211 427 -272 629 -133 l51
35 51 -35 c133 -91 331 -99 469 -18 139 82 230 242 230 405 0 36 2 39 23 32
12 -3 38 -15 58 -25 68 -34 269 -98 387 -123 433 -92 896 -42 1295 138 l57 26
0 -196 c0 -160 3 -202 16 -230 22 -47 67 -76 123 -82 44 -4 65 5 381 164 315
159 336 171 357 209 l23 40 -3 942 c-2 933 -2 942 -23 969 -11 15 -33 37 -48
48 -27 20 -42 21 -579 26 l-552 5 -515 253 c-283 139 -516 254 -518 256 -2 3
87 133 197 290 110 158 205 296 212 307 16 30 13 102 -5 137 -11 21 -98 88
-281 217 -146 102 -277 190 -291 195 -34 13 -73 12 -109 -4z m315 -499 c29
-20 33 -11 -72 -160 -45 -63 -75 -97 -83 -93 -8 3 -64 40 -124 83 l-110 77 16
26 c9 14 47 69 85 123 l69 97 97 -67 c54 -38 109 -76 122 -86z m-432 -430 c71
-50 110 -83 105 -90 -4 -7 -200 -288 -435 -624 l-429 -613 -180 0 c-101 0
-179 4 -177 9 12 33 985 1408 993 1403 6 -3 61 -41 123 -85z m-658 -132 c0 -3
-196 -285 -436 -627 -425 -608 -436 -623 -490 -652 -137 -74 -247 -218 -285
-373 -17 -70 -38 -101 -84 -123 -76 -37 -162 -20 -205 40 -27 39 -37 108 -20
141 37 69 817 1288 839 1311 17 17 126 71 306 149 154 67 291 125 305 129 29
10 70 12 70 5z m1810 -786 l225 -109 177 0 178 0 0 -629 0 -628 -119 -56
c-268 -126 -466 -174 -751 -184 -326 -10 -585 53 -925 226 l-130 66 -590 5
c-589 5 -590 5 -632 28 -66 35 -110 79 -140 140 -23 47 -28 70 -28 132 1 123
61 216 174 269 l56 26 585 6 c648 6 648 6 825 76 116 45 220 106 322 188 93
74 122 110 130 159 17 104 -91 199 -190 167 -18 -6 -58 -33 -88 -59 -158 -140
-332 -216 -528 -229 -80 -5 -93 -4 -86 8 5 8 141 204 303 435 l294 421 357
-175 c196 -96 457 -224 581 -283z m1180 -889 l0 -780 -150 -75 -150 -75 0 855
0 855 150 0 150 0 0 -780z m-3922 -639 c17 -7 32 -16 32 -20 0 -3 -27 -42 -58
-86 -57 -79 -59 -81 -201 -158 -79 -43 -145 -76 -146 -75 -2 2 8 75 21 163
l24 160 66 96 65 95 82 -81 c45 -44 97 -87 115 -94z m602 -174 c0 -133 -36
-192 -127 -204 -98 -13 -164 46 -171 152 -4 55 -1 67 23 104 l28 41 123 0 124
0 0 -93z m600 0 c0 -146 -42 -202 -150 -202 -108 0 -150 56 -150 202 l0 93
150 0 150 0 0 -93z"/>
</g>
</svg>
